<?xml version="1.0" encoding="utf-8"?>
<!-- Generator: Adobe Illustrator 17.0.0, SVG Export Plug-In . SVG Version: 6.00 Build 0)  -->
<!DOCTYPE svg PUBLIC "-//W3C//DTD SVG 1.1//EN" "http://www.w3.org/Graphics/SVG/1.1/DTD/svg11.dtd">
<svg version="1.1" id="图层_1" xmlns="http://www.w3.org/2000/svg" xmlns:xlink="http://www.w3.org/1999/xlink" x="0px" y="0px"
	 width="500px" height="150px" viewBox="0 0 500 150" enable-background="new 0 0 500 150" xml:space="preserve">
<rect x="19.354" y="28.603" fill="none" width="328.716" height="121.397"/>
<g enable-background="new    ">
	<path d="M88.954,71.961c0,1.798-1.7,8.257-5.1,19.377c-0.6,0.4-2.3,0.966-5.1,1.698c-2.334,0.601-3.7,1.432-4.1,2.497
		c-1.6,3.995-4.334,13.252-8.2,27.768l-34.1-23.7l10.8-16l-8.3-20.2h-15.1l1.8-26l37.2,6.092v20.376l30.2,6.094V71.961z
		 M62.354,80.102h-3.4v7.1L62.354,80.102z"/>
	<path d="M167.653,42.602l-1.7,27.7h-10.4l-4.9,14.144l8.3,13.447l-24.9,23.508h-10.1l-24.4-23.6l8.3-13.5l-4.9-14h-9.9l-2.7-27.4
		l34.4-3.3l2.2,55.399h4l2.2-55.399L167.653,42.602z"/>
	<path d="M242.852,85.602l-26.9,25.1l-23.6-22.6l2.4,27l-14.5,8.1l-9.2-23.6l9.4-3.5l2.6,6.2l-2.3-15.4
		c-1.867-0.065-3.734,0.534-5.6,1.8l-2.4-13.373l4.5-1.697v-2.595c-0.734-3.06-1.734-8.15-3-15.271
		c-0.2-0.466-1.234-0.932-3.1-1.397c-1.6-0.398-2.4-1.097-2.4-2.097v-14.87l19,2.795c1.266,0.2,8.465,1.629,21.6,4.291
		c7.066,1.466,13.433,3.295,19.1,5.49c2.733,1.066,3.933,2.796,3.6,5.191c-0.867,6.056-4.7,11.079-11.5,15.07l-15.6,9.182
		l14.3,10.979l3.2-9.3c0.133-0.266,0.033-0.565-0.3-0.9l-2.4,2.2l5.2-10.099L242.852,85.602z M208.852,63.001l-13.2-5.899h-7
		l2.3,15.2L208.852,63.001z"/>
	<path d="M336.351,52.102l-9.101,23l-8.899-5.101l-6.7,13.2l8.4,11.8l-24.5,24.301l-18.2-54.5l1.7,28.299l8.399,8.399l-8.8,19.5
		l-29-11.6l13.7-20c-1.935-5.533-4.8-13.965-8.6-25.299c-0.067-0.2-0.668-0.666-1.801-1.4c-0.534-0.133-4.066-1.2-10.6-3.2v-21
		l35.1,1.7l16.101,39l7.1-37.199c0.533-0.466,0.966-0.7,1.3-0.7L336.351,52.102z"/>
</g>
<rect x="361" y="92.8" fill="none" width="124" height="45.2"/>
<g enable-background="new    ">
	<path d="M367.498,103.089h-1.143v-3.727c0-1.305-0.484-1.957-1.453-1.957c-0.496,0-0.908,0.19-1.236,0.571s-0.492,0.86-0.492,1.438
		v3.674h-1.148v-9.592h1.148v4.178h0.023c0.496-0.813,1.201-1.219,2.115-1.219c1.457,0,2.186,0.881,2.186,2.643V103.089z"/>
</g>
<g enable-background="new    ">
	<path d="M370.563,102.175v0.914h-1.148v-9.592h1.148v4.23h0.023c0.508-0.848,1.25-1.271,2.227-1.271
		c0.813,0,1.458,0.286,1.937,0.858s0.718,1.354,0.718,2.347c0,1.094-0.269,1.964-0.806,2.61s-1.253,0.97-2.147,0.97
		c-0.844,0-1.486-0.355-1.928-1.066H370.563z M370.557,100.423c0,0.523,0.17,0.966,0.51,1.327s0.766,0.542,1.277,0.542
		c0.609,0,1.086-0.234,1.43-0.703s0.516-1.117,0.516-1.945c0-0.684-0.16-1.228-0.48-1.632s-0.758-0.606-1.313-0.606
		c-0.563,0-1.026,0.201-1.392,0.604s-0.548,0.914-0.548,1.535V100.423z"/>
</g>
<g enable-background="new    ">
	<path d="M382.428,103.089h-1.154v-1.02h-0.023c-0.434,0.781-1.1,1.172-1.998,1.172c-1.535,0-2.303-0.918-2.303-2.754v-3.879h1.137
		v3.709c0,1.316,0.504,1.975,1.512,1.975c0.5,0,0.904-0.185,1.213-0.554s0.463-0.835,0.463-1.397v-3.732h1.154V103.089z"/>
</g>
<g enable-background="new    ">
	<path d="M387.947,97.745c-0.191-0.137-0.455-0.205-0.791-0.205c-0.445,0-0.813,0.208-1.102,0.624s-0.434,0.964-0.434,1.644v3.281
		h-1.148v-6.48h1.148v1.318h0.023c0.328-0.953,0.895-1.43,1.699-1.43c0.262,0,0.463,0.029,0.604,0.088V97.745z"/>
</g>
<g enable-background="new    ">
	<path d="M394.51,103.089h-1.143v-3.686c0-1.332-0.486-1.998-1.459-1.998c-0.504,0-0.918,0.188-1.242,0.563s-0.486,0.85-0.486,1.424
		v3.697h-1.148v-6.48h1.148v1.072h0.023c0.488-0.816,1.197-1.225,2.127-1.225c0.711,0,1.252,0.228,1.623,0.683
		s0.557,1.118,0.557,1.989V103.089z"/>
</g>
<g enable-background="new    ">
	<path d="M396.068,95.056h1.184c0.289-0.711,0.527-1.359,0.715-1.945l0.984,0.281c-0.246,0.598-0.484,1.152-0.715,1.664h2.344v9.328
		h-0.938v-0.914h-2.637v0.996h-0.938V95.056z M399.643,95.935h-2.637v2.848h2.637V95.935z M397.006,102.591h2.637v-2.965h-2.637
		V102.591z M400.756,97.458c0.734-1.164,1.355-2.613,1.863-4.348l0.984,0.246c-0.199,0.59-0.402,1.145-0.609,1.664h3.773
		c-0.094,4.016-0.172,6.543-0.234,7.582c-0.055,1.227-0.699,1.84-1.934,1.84c-0.711,0-1.434-0.023-2.168-0.07
		c-0.047-0.391-0.109-0.738-0.188-1.043h0.035c0.781,0.109,1.496,0.164,2.145,0.164c0.711,0,1.094-0.375,1.148-1.125
		c0.086-1.164,0.148-3.32,0.188-6.469h-3.141c-0.34,0.754-0.691,1.418-1.055,1.992C401.354,97.743,401.084,97.599,400.756,97.458z
		 M401.787,98.255l0.715-0.527c0.867,1.023,1.559,1.91,2.074,2.66l-0.867,0.609C403.154,100.091,402.514,99.177,401.787,98.255z"/>
</g>
<g enable-background="new    ">
	<path fill="#110B79" d="M416.729,96.608l-1.934,6.48H413.6l-1.289-4.547c-0.055-0.195-0.09-0.402-0.105-0.621h-0.023
		c-0.012,0.164-0.057,0.367-0.135,0.609l-1.395,4.559h-1.16l-1.945-6.48h1.195l1.295,4.805c0.039,0.145,0.068,0.342,0.088,0.592
		h0.047c0.016-0.215,0.053-0.418,0.111-0.609l1.395-4.787h1.061l1.359,4.811c0.039,0.141,0.07,0.34,0.094,0.598h0.053
		c0.008-0.172,0.043-0.371,0.105-0.598l1.266-4.811H416.729z"/>
</g>
<g enable-background="new    ">
	<path fill="#110B79" d="M423.115,100.142h-4.535c0.02,0.691,0.209,1.226,0.568,1.603s0.861,0.565,1.506,0.565
		c0.727,0,1.393-0.232,1.998-0.697v1.025c-0.57,0.402-1.326,0.604-2.268,0.604c-0.938,0-1.669-0.297-2.194-0.891
		s-0.788-1.418-0.788-2.473c0-0.992,0.288-1.811,0.864-2.455s1.292-0.967,2.147-0.967c0.848,0,1.51,0.272,1.986,0.817
		s0.715,1.308,0.715,2.288V100.142z M421.967,99.222c-0.004-0.586-0.143-1.039-0.416-1.359s-0.658-0.48-1.154-0.48
		c-0.457,0-0.853,0.17-1.187,0.51s-0.544,0.783-0.63,1.33H421.967z"/>
</g>
<g enable-background="new    ">
	<path fill="#110B79" d="M425.793,102.175v0.914h-1.148v-9.592h1.148v4.23h0.023c0.508-0.848,1.25-1.271,2.227-1.271
		c0.813,0,1.458,0.286,1.937,0.858s0.718,1.354,0.718,2.347c0,1.094-0.269,1.964-0.806,2.61s-1.253,0.97-2.147,0.97
		c-0.844,0-1.486-0.355-1.928-1.066H425.793z M425.787,100.423c0,0.523,0.17,0.966,0.51,1.327s0.766,0.542,1.277,0.542
		c0.609,0,1.086-0.234,1.43-0.703s0.516-1.117,0.516-1.945c0-0.684-0.16-1.228-0.48-1.632s-0.758-0.606-1.313-0.606
		c-0.563,0-1.026,0.201-1.392,0.604s-0.548,0.914-0.548,1.535V100.423z"/>
</g>
<g enable-background="new    ">
	<path fill="#110B79" d="M431.564,94.892h3.785c-0.258-0.406-0.586-0.848-0.984-1.324l0.738-0.504
		c0.484,0.539,0.875,1.02,1.172,1.441l-0.58,0.387h3.205l-0.469-0.258c0.414-0.508,0.773-1.039,1.078-1.594l0.891,0.516
		c-0.359,0.492-0.721,0.938-1.084,1.336h3.709v0.82h-11.461V94.892z M433.229,104.665h-0.891V96.86h5.133v6.551
		c0,0.766-0.395,1.141-1.184,1.125c-0.328,0-0.777-0.008-1.348-0.023c-0.047-0.305-0.105-0.594-0.176-0.867
		c0.477,0.039,0.918,0.059,1.324,0.059c0.328,0.008,0.492-0.152,0.492-0.48v-1.488h-3.352V104.665z M436.58,97.657h-3.352v1.254
		h3.352V97.657z M433.229,100.95h3.352v-1.254h-3.352V100.95z M438.865,97.048h0.891v5.273h-0.891V97.048z M441.279,96.485h0.914
		v6.551c0,0.961-0.453,1.445-1.359,1.453c-0.414,0.008-0.93,0.004-1.547-0.012c-0.039-0.32-0.094-0.648-0.164-0.984
		c0.578,0.063,1.047,0.094,1.406,0.094c0.5,0,0.75-0.254,0.75-0.762V96.485z"/>
</g>
<g enable-background="new    ">
	<path fill="#110B79" d="M447.197,97.13c-0.148,1.152-0.426,2.773-0.832,4.863c0.402-0.086,0.773-0.172,1.113-0.258
		c-0.008,0.305-0.004,0.582,0.012,0.832c-0.883,0.219-2.172,0.5-3.867,0.844l-0.176-0.879c0.785-0.129,1.5-0.256,2.145-0.381
		c0.383-2.348,0.641-4.072,0.773-5.174L447.197,97.13z M443.576,95.454h4.02v0.762h-4.02V95.454z M443.729,97.294l0.797-0.176
		c0.258,1.117,0.516,2.488,0.773,4.113l-0.809,0.211C444.279,99.88,444.025,98.497,443.729,97.294z M444.537,93.544l0.715-0.422
		c0.461,0.57,0.855,1.156,1.184,1.758l-0.773,0.469C445.381,94.802,445.006,94.2,444.537,93.544z M447.525,97.552h7.582v0.762
		h-3.516l-0.322,1.277h3.287v3.891c0,0.672-0.297,1.008-0.891,1.008c-0.203,0-0.488-0.004-0.855-0.012
		c-0.055-0.32-0.133-0.609-0.234-0.867c0.266,0.023,0.535,0.035,0.809,0.035c0.234,0,0.352-0.121,0.352-0.363v-2.965h-1.207v3.68
		h-0.785v-3.68h-1.16v3.609h-0.785v-3.609h-1.172v4.277h-0.82v-5.004h2.613l0.27-1.277h-3.164V97.552z M453.42,96.79v-0.363h-5.297
		V93.79h0.82v1.91h1.816v-2.648h0.844V95.7h1.816v-1.91h0.82v3H453.42z"/>
</g>
<g enable-background="new    ">
	<path d="M457.457,102.175v0.914h-1.148v-9.592h1.148v4.23h0.023c0.508-0.848,1.25-1.271,2.227-1.271
		c0.813,0,1.458,0.286,1.937,0.858s0.718,1.354,0.718,2.347c0,1.094-0.269,1.964-0.806,2.61s-1.253,0.97-2.147,0.97
		c-0.844,0-1.486-0.355-1.928-1.066H457.457z M457.451,100.423c0,0.523,0.17,0.966,0.51,1.327s0.766,0.542,1.277,0.542
		c0.609,0,1.086-0.234,1.43-0.703s0.516-1.117,0.516-1.945c0-0.684-0.16-1.228-0.48-1.632s-0.758-0.606-1.313-0.606
		c-0.563,0-1.026,0.201-1.392,0.604s-0.548,0.914-0.548,1.535V100.423z"/>
</g>
<g enable-background="new    ">
	<path d="M463.967,103.089v-9.592h1.148v9.592H463.967z"/>
</g>
<g enable-background="new    ">
	<path d="M466.732,99.919c0-1.07,0.299-1.915,0.896-2.534s1.408-0.929,2.432-0.929c0.973,0,1.735,0.298,2.288,0.894
		s0.829,1.419,0.829,2.47c0,1.023-0.295,1.85-0.885,2.479s-1.381,0.943-2.373,0.943c-0.969,0-1.742-0.305-2.32-0.914
		S466.732,100.915,466.732,99.919z M467.904,99.884c0,0.746,0.188,1.334,0.565,1.764s0.884,0.645,1.521,0.645
		c0.656,0,1.156-0.21,1.5-0.63s0.516-1.022,0.516-1.808c0-0.789-0.172-1.395-0.516-1.816s-0.844-0.633-1.5-0.633
		c-0.645,0-1.153,0.221-1.526,0.662S467.904,99.114,467.904,99.884z"/>
</g>
<g enable-background="new    ">
	<path d="M480.42,102.544c0,2.398-1.164,3.598-3.492,3.598c-0.805,0-1.504-0.15-2.098-0.451v-1.107
		c0.723,0.402,1.416,0.604,2.08,0.604c1.574,0,2.361-0.828,2.361-2.484v-0.686h-0.023c-0.492,0.816-1.227,1.225-2.203,1.225
		c-0.813,0-1.463-0.291-1.951-0.873s-0.732-1.354-0.732-2.314c0-1.105,0.27-1.981,0.809-2.628s1.258-0.97,2.156-0.97
		c0.863,0,1.504,0.344,1.922,1.031h0.023v-0.879h1.148V102.544z M479.271,99.233c0.004-0.5-0.164-0.93-0.504-1.289
		s-0.758-0.539-1.254-0.539c-0.625,0-1.111,0.229-1.459,0.688s-0.521,1.089-0.521,1.89c0,0.688,0.168,1.244,0.504,1.67
		s0.781,0.639,1.336,0.639c0.559,0,1.016-0.203,1.371-0.609s0.531-0.922,0.527-1.547V99.233z"/>
</g>
<g enable-background="new    ">
	<path d="M370.328,125.408l-1.934,6.48h-1.195l-1.289-4.547c-0.055-0.195-0.09-0.402-0.105-0.621h-0.023
		c-0.012,0.164-0.057,0.367-0.135,0.609l-1.395,4.559h-1.16l-1.945-6.48h1.195l1.295,4.805c0.039,0.145,0.068,0.342,0.088,0.592
		h0.047c0.016-0.215,0.053-0.418,0.111-0.609l1.395-4.787h1.061l1.359,4.811c0.039,0.141,0.07,0.34,0.094,0.598h0.053
		c0.008-0.172,0.043-0.371,0.105-0.598l1.266-4.811H370.328z"/>
</g>
<g enable-background="new    ">
	<path d="M379.803,125.408l-1.934,6.48h-1.195l-1.289-4.547c-0.055-0.195-0.09-0.402-0.105-0.621h-0.023
		c-0.012,0.164-0.057,0.367-0.135,0.609l-1.395,4.559h-1.16l-1.945-6.48h1.195l1.295,4.805c0.039,0.145,0.068,0.342,0.088,0.592
		h0.047c0.016-0.215,0.053-0.418,0.111-0.609l1.395-4.787h1.061l1.359,4.811c0.039,0.141,0.07,0.34,0.094,0.598h0.053
		c0.008-0.172,0.043-0.371,0.105-0.598l1.266-4.811H379.803z"/>
</g>
<g enable-background="new    ">
	<path d="M389.277,125.408l-1.934,6.48h-1.195l-1.289-4.547c-0.055-0.195-0.09-0.402-0.105-0.621h-0.023
		c-0.012,0.164-0.057,0.367-0.135,0.609l-1.395,4.559h-1.16l-1.945-6.48h1.195l1.295,4.805c0.039,0.145,0.068,0.342,0.088,0.592
		h0.047c0.016-0.215,0.053-0.418,0.111-0.609l1.395-4.787h1.061l1.359,4.811c0.039,0.141,0.07,0.34,0.094,0.598h0.053
		c0.008-0.172,0.043-0.371,0.105-0.598l1.266-4.811H389.277z"/>
</g>
<g enable-background="new    ">
	<path d="M389.477,131.285c0-0.211,0.072-0.389,0.217-0.533s0.324-0.217,0.539-0.217c0.219,0,0.4,0.073,0.545,0.22
		s0.217,0.323,0.217,0.53c0,0.203-0.072,0.378-0.217,0.524s-0.328,0.22-0.551,0.22c-0.215,0-0.394-0.073-0.536-0.22
		S389.477,131.488,389.477,131.285z"/>
</g>
<g enable-background="new    ">
	<path fill="#13007C" d="M398.652,131.889h-1.887v-3.691c0-0.996-0.363-1.494-1.09-1.494c-0.363,0-0.663,0.139-0.899,0.416
		s-0.354,0.637-0.354,1.078v3.691h-1.893v-9.592h1.893v4.084h0.023c0.496-0.754,1.164-1.131,2.004-1.131
		c1.469,0,2.203,0.887,2.203,2.66V131.889z"/>
</g>
<g enable-background="new    ">
	<path fill="#13007C" d="M402.168,131.109v0.779h-1.893v-9.592h1.893v4.102h0.023c0.496-0.766,1.203-1.148,2.121-1.148
		c0.816,0,1.456,0.285,1.919,0.855s0.694,1.357,0.694,2.361c0,1.074-0.266,1.939-0.797,2.596s-1.236,0.984-2.115,0.984
		c-0.805,0-1.412-0.313-1.822-0.938H402.168z M402.139,129.088c0,0.426,0.127,0.783,0.381,1.072s0.576,0.434,0.967,0.434
		c0.473,0,0.841-0.184,1.104-0.551s0.396-0.887,0.396-1.559c0-0.559-0.12-0.995-0.36-1.31s-0.583-0.472-1.028-0.472
		c-0.422,0-0.771,0.158-1.046,0.475s-0.413,0.723-0.413,1.219V129.088z"/>
</g>
<g enable-background="new    ">
	<path fill="#13007C" d="M414.326,131.889h-1.881v-0.99h-0.029c-0.484,0.766-1.146,1.148-1.986,1.148
		c-1.508,0-2.262-0.91-2.262-2.73v-3.908h1.893v3.732c0,0.969,0.379,1.453,1.137,1.453c0.379,0,0.682-0.133,0.908-0.398
		s0.34-0.625,0.34-1.078v-3.709h1.881V131.889z"/>
</g>
<g enable-background="new    ">
	<path fill="#13007C" d="M420.174,127.125c-0.23-0.133-0.51-0.199-0.838-0.199c-0.43,0-0.771,0.164-1.022,0.492
		s-0.378,0.779-0.378,1.354v3.117h-1.893v-6.48h1.893v1.219h0.023c0.313-0.887,0.881-1.33,1.705-1.33
		c0.223,0,0.393,0.025,0.51,0.076V127.125z"/>
</g>
<g enable-background="new    ">
	<path fill="#13007C" d="M427.316,131.889h-1.881v-3.615c0-1.047-0.377-1.57-1.131-1.57c-0.359,0-0.658,0.14-0.896,0.419
		s-0.357,0.636-0.357,1.069v3.697h-1.893v-6.48h1.893v1.031h0.023c0.473-0.793,1.168-1.189,2.086-1.189
		c1.438,0,2.156,0.891,2.156,2.672V131.889z"/>
</g>
<g enable-background="new    ">
	<path fill="#13007C" d="M438.18,125.408l-1.875,6.48h-1.986l-0.996-3.891c-0.066-0.262-0.102-0.529-0.105-0.803h-0.041
		c-0.027,0.309-0.068,0.568-0.123,0.779l-1.072,3.914h-1.963l-1.846-6.48h1.934l0.943,4.301c0.039,0.172,0.07,0.408,0.094,0.709
		h0.041c0.02-0.289,0.057-0.533,0.111-0.732l1.16-4.277h1.793l1.037,4.307c0.027,0.117,0.057,0.355,0.088,0.715h0.047
		c0.012-0.207,0.045-0.445,0.1-0.715l0.902-4.307H438.18z"/>
</g>
<g enable-background="new    ">
	<path fill="#13007C" d="M444.848,129.182h-4.266c0.066,1.004,0.672,1.506,1.816,1.506c0.715,0,1.346-0.176,1.893-0.527v1.389
		c-0.59,0.332-1.363,0.498-2.32,0.498c-1.031,0-1.833-0.291-2.405-0.873s-0.858-1.393-0.858-2.432c0-1.035,0.305-1.876,0.914-2.522
		s1.375-0.97,2.297-0.97c0.918,0,1.636,0.278,2.153,0.835s0.776,1.321,0.776,2.294V129.182z M443.084,127.998
		c0-0.969-0.393-1.453-1.178-1.453c-0.324,0-0.611,0.133-0.861,0.398s-0.406,0.617-0.469,1.055H443.084z"/>
</g>
<g enable-background="new    ">
	<path fill="#13007C" d="M447.971,131.109v0.779h-1.893v-9.592h1.893v4.102h0.023c0.496-0.766,1.203-1.148,2.121-1.148
		c0.816,0,1.456,0.285,1.919,0.855s0.694,1.357,0.694,2.361c0,1.074-0.266,1.939-0.797,2.596s-1.236,0.984-2.115,0.984
		c-0.805,0-1.412-0.313-1.822-0.938H447.971z M447.941,129.088c0,0.426,0.127,0.783,0.381,1.072s0.576,0.434,0.967,0.434
		c0.473,0,0.841-0.184,1.104-0.551s0.396-0.887,0.396-1.559c0-0.559-0.12-0.995-0.36-1.31s-0.583-0.472-1.028-0.472
		c-0.422,0-0.771,0.158-1.046,0.475s-0.413,0.723-0.413,1.219V129.088z"/>
</g>
<g enable-background="new    ">
	<path d="M453.906,131.285c0-0.211,0.072-0.389,0.217-0.533s0.324-0.217,0.539-0.217c0.219,0,0.4,0.073,0.545,0.22
		s0.217,0.323,0.217,0.53c0,0.203-0.072,0.378-0.217,0.524s-0.328,0.22-0.551,0.22c-0.215,0-0.394-0.073-0.536-0.22
		S453.906,131.488,453.906,131.285z"/>
</g>
<g enable-background="new    ">
	<path d="M461.6,131.596c-0.496,0.297-1.094,0.445-1.793,0.445c-0.938,0-1.691-0.301-2.262-0.902s-0.855-1.381-0.855-2.338
		c0-1.063,0.308-1.919,0.923-2.569s1.438-0.976,2.47-0.976c0.594,0,1.102,0.105,1.523,0.316v1.137
		c-0.457-0.336-0.965-0.504-1.523-0.504c-0.656,0-1.19,0.228-1.603,0.683s-0.618,1.062-0.618,1.819c0,0.746,0.194,1.33,0.583,1.752
		s0.913,0.633,1.573,0.633c0.559,0,1.086-0.184,1.582-0.551V131.596z"/>
</g>
<g enable-background="new    ">
	<path d="M462.707,128.719c0-1.07,0.299-1.915,0.896-2.534s1.408-0.929,2.432-0.929c0.973,0,1.735,0.298,2.288,0.894
		s0.829,1.419,0.829,2.47c0,1.023-0.295,1.85-0.885,2.479s-1.381,0.943-2.373,0.943c-0.969,0-1.742-0.305-2.32-0.914
		S462.707,129.715,462.707,128.719z M463.879,128.684c0,0.746,0.188,1.334,0.565,1.764s0.884,0.645,1.521,0.645
		c0.656,0,1.156-0.21,1.5-0.63s0.516-1.022,0.516-1.808c0-0.789-0.172-1.395-0.516-1.816s-0.844-0.633-1.5-0.633
		c-0.645,0-1.153,0.221-1.526,0.662S463.879,127.914,463.879,128.684z"/>
</g>
<g enable-background="new    ">
	<path d="M480.098,131.889h-1.148v-3.721c0-0.703-0.109-1.206-0.328-1.509s-0.578-0.454-1.078-0.454
		c-0.422,0-0.783,0.197-1.084,0.592s-0.451,0.861-0.451,1.4v3.691h-1.148v-3.838c0-1.23-0.475-1.846-1.424-1.846
		c-0.438,0-0.8,0.188-1.087,0.563s-0.431,0.854-0.431,1.436v3.686h-1.148v-6.48h1.148v1.025h0.023
		c0.461-0.785,1.135-1.178,2.021-1.178c0.434,0,0.816,0.119,1.148,0.357s0.563,0.561,0.691,0.967
		c0.48-0.883,1.199-1.324,2.156-1.324c1.426,0,2.139,0.879,2.139,2.637V131.889z"/>
</g>
<rect x="358.6" y="13.2" fill="none" width="108" height="58.8"/>
<g enable-background="new    ">
	<path d="M379.36,23.401c0.96,0,1.98-1,3.06-3c1.08-2,2.16-3,3.24-3h9c0.92,0,1.75,0.37,2.49,1.109c0.739,0.741,1.11,1.57,1.11,2.49
		v34.2c0,0.32-0.201,0.921-0.601,1.8c-0.64,1.48-1.26,2.78-1.859,3.9l-1.08,2.1c-0.36,0.681-0.581,1.08-0.66,1.2
		c-0.881,1.439-2.661,2.079-5.34,1.92c-2.521-0.12-4.261-0.2-5.221-0.24c-2.64-0.199-4.72-1.959-6.239-5.28h-0.601
		c-0.76,1.555-1.439,2.72-2.04,3.496c-1.04,1.351-2.16,2.024-3.359,2.024h-9c-0.321,0-0.9-0.351-1.74-1.053
		c-0.84-0.701-1.26-1.152-1.26-1.353V27.024c0-0.08,0.14-0.42,0.42-1.021c1.439-3.089,2.499-5.154,3.18-6.196l0.42-0.481
		c0.36-0.359,0.64-0.641,0.84-0.842c0.721-0.722,1.3-1.082,1.74-1.082h9c1.6,0,2.76,1.04,3.48,3.119
		c0.159,0.521,0.398,1.48,0.72,2.881H379.36z M367.061,54.6h7.439l6.02-11.34l6.018,11.34h7.523v-33h-7.44v16.801l-0.909-0.601
		l-5.332-9.84l-5.879,10.44V21.6h-7.439V54.6z"/>
	<path d="M403.959,19.201c0.2-0.399,0.721-0.8,1.561-1.2c0.84-0.399,1.52-0.6,2.04-0.6h18.6c0.76,0,1.65,0.32,2.67,0.96
		c1.021,0.64,1.53,1.319,1.53,2.04v36l-4.2,8.399l-0.6,0.601l-1.2,0.6h-22.2c-0.479,0-1-0.279-1.56-0.84
		c-0.561-0.56-0.84-1.08-0.84-1.561v-36L403.959,19.201z M407.56,54.6h18.6v-7.5h-10.8v-3h10.8v-8.399h-10.8v-3h10.8V21.6h-18.6
		V54.6z"/>
	<path d="M461.859,35.401c0,0.6,0.199,1.4,0.6,2.399v12c0,1.4-0.61,3.3-1.83,5.7c-1.221,2.4-2.41,3.9-3.57,4.5l-2.1,1.08
		c-3.641,1.881-6.54,3.32-8.7,4.32c-0.84,0.4-1.439,0.6-1.8,0.6h-9.6c-0.321,0-0.9-0.35-1.74-1.05
		c-0.84-0.699-1.26-1.149-1.26-1.351V27c0-0.08,0.14-0.42,0.42-1.02c1.439-3.08,2.499-5.14,3.18-6.181l0.42-0.479
		c0.36-0.36,0.64-0.64,0.84-0.84c0.721-0.721,1.3-1.08,1.74-1.08h20.4c0.919,0,1.749,0.37,2.489,1.109
		c0.74,0.741,1.11,1.57,1.11,2.49v12C462.059,34,461.859,34.8,461.859,35.401z M439.659,54.6h7.8l10.8-5.399V38.1h-4.8v-0.899
		l4.8-4.8V21.6h-18.6V54.6z M450.579,27c0,2.681-1.041,4.48-3.12,5.4V27H450.579z M450.579,40.8c0,3.16-1.041,5.16-3.12,6v-6
		H450.579z"/>
</g>
</svg>
